<svg xmlns="http://www.w3.org/2000/svg" xmlns:xlink="http://www.w3.org/1999/xlink" width="393" height="85" viewBox="0 0 393 85">
  <defs>
    <filter id="Rectangle_12" x="0" y="0" width="393" height="85" filterUnits="userSpaceOnUse">
      <feOffset dy="-7" input="SourceAlpha"/>
      <feGaussianBlur stdDeviation="3" result="blur"/>
      <feFlood flood-color="#568bd0" flood-opacity="0.051"/>
      <feComposite operator="in" in2="blur"/>
      <feComposite in="SourceGraphic"/>
    </filter>
  </defs>
  <g id="bottom_bar" data-name="bottom bar" transform="translate(9 -731)">
    <g transform="matrix(1, 0, 0, 1, -9, 731)" filter="url(#Rectangle_12)">
      <rect id="Rectangle_12-2" data-name="Rectangle 12" width="375" height="67" transform="translate(9 16)" fill="#fff"/>
    </g>
    <g id="Icon_feather-settings" data-name="Icon feather-settings" transform="translate(267.94 767)">
      <path id="Path_1" data-name="Path 1" d="M20.316,16.908A3.408,3.408,0,1,1,16.908,13.5,3.408,3.408,0,0,1,20.316,16.908Z" transform="translate(-4.412 -4.412)" fill="none" stroke="#002d67" stroke-linecap="round" stroke-linejoin="round" stroke-width="2.5"/>
      <path id="Path_2" data-name="Path 2" d="M22.4,17.4a1.874,1.874,0,0,0,.375,2.068l.068.068a2.273,2.273,0,1,1-3.215,3.215l-.068-.068a1.89,1.89,0,0,0-3.2,1.34v.193a2.272,2.272,0,0,1-4.544,0v-.1A1.874,1.874,0,0,0,10.588,22.4a1.874,1.874,0,0,0-2.068.375l-.068.068A2.273,2.273,0,1,1,5.237,19.63l.068-.068a1.89,1.89,0,0,0-1.34-3.2H3.772a2.272,2.272,0,0,1,0-4.544h.1A1.874,1.874,0,0,0,5.59,10.588,1.874,1.874,0,0,0,5.215,8.52l-.068-.068A2.273,2.273,0,1,1,8.361,5.237l.068.068A1.874,1.874,0,0,0,10.5,5.68h.091a1.874,1.874,0,0,0,1.136-1.715V3.772a2.272,2.272,0,0,1,4.544,0v.1a1.89,1.89,0,0,0,3.2,1.34l.068-.068a2.273,2.273,0,1,1,3.215,3.215l-.068.068a1.874,1.874,0,0,0-.375,2.068v.091a1.874,1.874,0,0,0,1.715,1.136h.193a2.272,2.272,0,0,1,0,4.544h-.1A1.874,1.874,0,0,0,22.4,17.4Z" transform="translate(-1.5 -1.5)" fill="none" stroke="#588dd0" stroke-linecap="round" stroke-linejoin="round" stroke-width="2.5"/>
    </g>
    <g id="Icon_feather-home" data-name="Icon feather-home" transform="translate(177 766.81)">
      <path id="Path_4" data-name="Path 4" d="M13.5,31.124V18h7.874V31.124" transform="translate(-5.626 -4.876)" fill="none" stroke="#002d67" stroke-linecap="round" stroke-linejoin="round" stroke-width="3"/>
      <path id="Path_3" data-name="Path 3" d="M4.5,12.187,16.311,3l11.811,9.187V26.623A2.625,2.625,0,0,1,25.5,29.248H7.125A2.625,2.625,0,0,1,4.5,26.623Z" transform="translate(-4.5 -3)" fill="none" stroke="#588dd0" stroke-linecap="round" stroke-linejoin="round" stroke-width="3"/>
    </g>
    <g id="bulb" transform="translate(2 7)">
      <path id="Icon_material-lightbulb-outline" data-name="Icon material-lightbulb-outline" d="M12.886,28.585a1.351,1.351,0,0,0,1.347,1.347h5.386a1.351,1.351,0,0,0,1.347-1.347V27.239h-8.08ZM16.926,3A9.422,9.422,0,0,0,11.54,20.156V23.2a1.351,1.351,0,0,0,1.347,1.347h8.08A1.351,1.351,0,0,0,22.313,23.2V20.156A9.422,9.422,0,0,0,16.926,3Zm3.838,14.947-1.145.808v3.1H14.233v-3.1l-1.145-.808a6.733,6.733,0,1,1,7.676,0Z" transform="translate(83.5 757)" fill="#578cd0"/>
      <path id="Rectangle_3" data-name="Rectangle 3" d="M0,0H9A0,0,0,0,1,9,0V2A1,1,0,0,1,8,3H1A1,1,0,0,1,0,2V0A0,0,0,0,1,0,0Z" transform="translate(96 784)" fill="#002d67"/>
    </g>
  </g>
</svg>
