<svg xmlns="http://www.w3.org/2000/svg" xmlns:xlink="http://www.w3.org/1999/xlink" width="50" height="50" viewBox="0 0 50 50">
  <defs>
    <filter id="Ellipse_22" x="0" y="0" width="50" height="50" filterUnits="userSpaceOnUse">
      <feOffset dy="3" input="SourceAlpha"/>
      <feGaussianBlur stdDeviation="3" result="blur"/>
      <feFlood flood-color="#002d67" flood-opacity="0.098"/>
      <feComposite operator="in" in2="blur"/>
      <feComposite in="SourceGraphic"/>
    </filter>
  </defs>
  <g id="power_off" data-name="power off" transform="translate(-307.8 -244.8)">
    <g transform="matrix(1, 0, 0, 1, 307.8, 244.8)" filter="url(#Ellipse_22)">
      <circle id="Ellipse_22-2" data-name="Ellipse 22" cx="16" cy="16" r="16" transform="translate(9 6)" fill="#fff"/>
    </g>
    <path id="Icon_awesome-power-off" data-name="Icon awesome-power-off" d="M14.421,1.913a8.767,8.767,0,1,1-10.189,0,.851.851,0,0,1,1.237.272l.559.993a.848.848,0,0,1-.233,1.1,5.939,5.939,0,1,0,7.067,0,.843.843,0,0,1-.23-1.092l.559-.993a.847.847,0,0,1,1.23-.276ZM10.745,9.334V.849A.846.846,0,0,0,9.9,0H8.765a.846.846,0,0,0-.849.849V9.334a.846.846,0,0,0,.849.849H9.9A.846.846,0,0,0,10.745,9.334Z" transform="translate(323.209 257.587)" fill="#ff9696"/>
  </g>
</svg>
