<svg xmlns="http://www.w3.org/2000/svg" xmlns:xlink="http://www.w3.org/1999/xlink" width="435" height="78" viewBox="0 0 435 78">
  <defs>
    <filter id="Rectangle_1" x="0" y="0" width="157" height="78" filterUnits="userSpaceOnUse">
      <feOffset dy="3" input="SourceAlpha"/>
      <feGaussianBlur stdDeviation="5.5" result="blur"/>
      <feFlood flood-color="#0a4da2" flood-opacity="0.059"/>
      <feComposite operator="in" in2="blur"/>
      <feComposite in="SourceGraphic"/>
    </filter>
    <filter id="Rectangle_1-2" x="139" y="0" width="157" height="78" filterUnits="userSpaceOnUse">
      <feOffset dy="3" input="SourceAlpha"/>
      <feGaussianBlur stdDeviation="5.5" result="blur-2"/>
      <feFlood flood-color="#001631" flood-opacity="0.29"/>
      <feComposite operator="in" in2="blur-2"/>
      <feComposite in="SourceGraphic"/>
    </filter>
    <filter id="Rectangle_1-3" x="278" y="0" width="157" height="78" filterUnits="userSpaceOnUse">
      <feOffset dy="3" input="SourceAlpha"/>
      <feGaussianBlur stdDeviation="5.5" result="blur-3"/>
      <feFlood flood-color="#0a4da2" flood-opacity="0.059"/>
      <feComposite operator="in" in2="blur-3"/>
      <feComposite in="SourceGraphic"/>
    </filter>
  </defs>
  <g id="Group_37" data-name="Group 37" transform="translate(-7.5 -183.5)">
    <g id="Group_2" data-name="Group 2" transform="translate(0 -65)">
      <g transform="matrix(1, 0, 0, 1, 7.5, 248.5)" filter="url(#Rectangle_1)">
        <rect id="Rectangle_1-4" data-name="Rectangle 1" width="124" height="45" rx="12" transform="translate(16.5 13.5)" fill="#fff"/>
      </g>
      <text id="Main_Light" data-name="Main Light" transform="translate(98 289)" fill="#002d67" font-size="13" font-family="Helvetica-Bold, Helvetica" font-weight="700"><tspan x="-32.494" y="0">Main Light</tspan></text>
      <g id="surface1" transform="translate(36 273.575)">
        <path id="Path_101" data-name="Path 101" d="M102.765,0a6.367,6.367,0,0,0-3.8,11.474v.532a1.876,1.876,0,0,0-.134,2.694,1.879,1.879,0,0,0,.818,3.078,3.162,3.162,0,0,0,6.239,0A1.879,1.879,0,0,0,106.7,14.7a1.876,1.876,0,0,0-.134-2.694v-.532A6.367,6.367,0,0,0,102.765,0Zm2.564,12.734a.684.684,0,0,1,0,1.367H100.2a.684.684,0,1,1,0-1.367Zm-2.564,6.495a1.969,1.969,0,0,1-1.872-1.367h3.745A1.969,1.969,0,0,1,102.765,19.229Zm2.564-2.564H100.2a.683.683,0,1,1,0-1.367h5.128a.683.683,0,0,1,0,1.367Zm.308-6a.6.6,0,0,0-.266.5v.374h-.726V9.179l.859-.859a.6.6,0,1,0-.846-.846l-1.035,1.035a.6.6,0,0,0-.175.423v2.606h-1.367V8.931a.6.6,0,0,0-.175-.423l-1.035-1.035a.6.6,0,1,0-.846.846l.859.859v2.359h-.726v-.374a.6.6,0,0,0-.266-.5,5.17,5.17,0,1,1,5.744,0Zm0,0" transform="translate(-92.553 0)" fill="#002d67"/>
        <path id="Path_102" data-name="Path 102" d="M2.479,145.2a.6.6,0,0,0-.6-.6H.6a.6.6,0,1,0,0,1.2H1.88A.6.6,0,0,0,2.479,145.2Zm0,0" transform="translate(0 -138.833)" fill="#002d67"/>
        <path id="Path_103" data-name="Path 103" d="M451.747,144.6h-1.282a.6.6,0,1,0,0,1.2h1.282a.6.6,0,1,0,0-1.2Zm0,0" transform="translate(-431.921 -138.833)" fill="#002d67"/>
        <path id="Path_104" data-name="Path 104" d="M33.695,249.112l-1.11.641a.6.6,0,1,0,.6,1.036l1.11-.641a.6.6,0,1,0-.6-1.037Zm0,0" transform="translate(-30.997 -239.097)" fill="#002d67"/>
        <path id="Path_105" data-name="Path 105" d="M422.48,25.937a.6.6,0,0,0,.3-.08l1.11-.641a.6.6,0,1,0-.6-1.036l-1.11.641a.6.6,0,0,0,.3,1.117Zm0,0" transform="translate(-405.051 -23.138)" fill="#002d67"/>
        <path id="Path_106" data-name="Path 106" d="M423.888,249.757l-1.11-.641a.6.6,0,1,0-.6,1.036l1.11.641a.6.6,0,1,0,.6-1.036Zm0,0" transform="translate(-405.05 -239.101)" fill="#002d67"/>
        <path id="Path_107" data-name="Path 107" d="M34.3,24.821l-1.11-.641a.6.6,0,0,0-.6,1.036l1.11.641a.6.6,0,0,0,.6-1.037Zm0,0" transform="translate(-31 -23.139)" fill="#002d67"/>
      </g>
    </g>
    <g id="Group_15" data-name="Group 15" transform="translate(139 -65)">
      <g transform="matrix(1, 0, 0, 1, -131.5, 248.5)" filter="url(#Rectangle_1-2)">
        <rect id="Rectangle_1-5" data-name="Rectangle 1" width="124" height="45" rx="12" transform="translate(155.5 13.5)" fill="#093b7b"/>
      </g>
      <text id="Desk_lights" data-name="Desk lights" transform="translate(100 289)" fill="#fff" font-size="13" font-family="Helvetica-Bold, Helvetica" font-weight="700"><tspan x="-34.677" y="0">Desk lights</tspan></text>
      <path id="furniture-and-household" d="M19.476,7.621H7.621V6.774h3.387a.847.847,0,0,0,.847-.847V.847A.847.847,0,0,0,11.008,0H2.54a.847.847,0,0,0-.847.847V5.927a.847.847,0,0,0,.847.847H5.927v.847H.847A.847.847,0,0,0,0,8.468V20.323H1.694V11.855H11.855v5.927a.847.847,0,0,0,.847.847h5.927v1.694h1.694V8.468A.847.847,0,0,0,19.476,7.621ZM3.387,1.694h6.774V5.081H3.387ZM1.694,9.315H18.629v.847H1.694Zm16.936,2.54v1.694H13.548V11.855Zm-5.081,5.081V15.242h5.081v1.694Z" transform="translate(38 272.677)" fill="#fff"/>
    </g>
    <g id="Group_16" data-name="Group 16" transform="translate(278 -65)">
      <g transform="matrix(1, 0, 0, 1, -270.5, 248.5)" filter="url(#Rectangle_1-3)">
        <rect id="Rectangle_1-6" data-name="Rectangle 1" width="124" height="45" rx="12" transform="translate(294.5 13.5)" fill="#fff"/>
      </g>
      <text id="Bed_Light" data-name="Bed Light" transform="translate(99 289)" fill="#002d67" font-size="13" font-family="Helvetica-Bold, Helvetica" font-weight="700"><tspan x="-29.967" y="0">Bed Light</tspan></text>
      <g id="bed_1_" data-name="bed (1)" transform="translate(39.318 196)">
        <g id="Group_18" data-name="Group 18" transform="translate(7.225 83.61)">
          <g id="Group_17" data-name="Group 17">
            <path id="Path_108" data-name="Path 108" d="M163.183,154.6H150.9c-.6,0-1.6.227-1.6,1.771v2.361h15.485v-2.361C164.785,154.832,163.783,154.6,163.183,154.6Z" transform="translate(-149.3 -154.6)" fill="#002d67"/>
          </g>
        </g>
        <g id="Group_20" data-name="Group 20" transform="translate(0 80)">
          <g id="Group_19" data-name="Group 19">
            <path id="Path_109" data-name="Path 109" d="M3.886,88.255H1.548V80H0V96H1.548V91.87H22.2V96h1.548V88.255Z" transform="translate(0 -80)" fill="#002d67"/>
          </g>
        </g>
        <g id="Group_22" data-name="Group 22" transform="translate(1.965 83.513)">
          <g id="Group_21" data-name="Group 21" transform="translate(0 0)">
            <circle id="Ellipse_11" data-name="Ellipse 11" cx="2.163" cy="2.163" r="2.163" fill="#002d67"/>
          </g>
        </g>
      </g>
    </g>
  </g>
</svg>
